P3
# Created by GIMP version 2.10.22 PNM plug-in
10 36
255
48
217
237
67
224
191
148
129
52
72
133
50
104
190
202
238
221
1
59
122
138
20
66
216
44
218
212
110
203
46
167
24
89
10
198
185
218
189
67
84
88
43
33
98
124
47
215
16
76
133
231
125
99
228
209
39
154
140
193
204
0
121
26
175
69
85
30
18
174
179
14
67
30
102
156
175
109
127
13
200
197
225
224
139
46
194
155
193
86
93
169
244
171
54
109
38
1
65
193
235
95
60
165
123
125
134
140
185
144
4
68
69
100
203
53
169
98
21
144
185
250
72
63
76
202
193
40
68
230
200
243
210
186
38
113
59
168
87
17
1
227
24
19
196
190
116
75
80
129
47
110
140
190
47
182
205
254
204
13
253
173
217
9
47
219
51
19
169
89
23
233
196
34
246
119
120
180
114
205
43
222
192
111
22
14
6
114
100
28
172
200
160
156
100
83
33
41
27
116
135
152
228
241
42
94
29
224
147
172
249
197
243
155
188
212
62
91
175
71
9
189
184
93
112
111
165
105
229
198
62
33
230
216
127
51
186
106
189
119
234
57
158
148
87
91
248
243
210
227
245
92
15
216
254
128
79
78
25
85
22
206
181
119
76
49
40
105
191
150
190
189
12
234
252
20
185
103
87
96
246
77
41
237
132
110
215
12
165
176
195
147
105
189
209
14
179
166
161
57
177
117
190
39
239
239
228
38
84
246
182
249
33
55
31
6
50
102
244
11
97
128
127
196
156
41
136
98
179
151
18
19
244
87
70
249
153
64
27
115
228
113
55
217
14
214
99
220
211
106
49
67
16
188
33
117
117
177
104
202
180
180
153
204
133
98
80
79
88
136
74
187
134
94
203
150
196
65
74
219
170
154
227
129
46
41
210
216
26
190
154
138
173
27
211
173
112
44
40
188
143
13
175
61
192
136
139
101
97
166
30
200
121
200
157
58
183
119
233
148
21
159
183
21
1
175
104
13
112
189
245
132
118
213
250
242
92
130
73
25
27
180
142
58
34
101
46
173
192
135
152
135
252
124
188
40
234
148
181
197
133
132
36
196
164
217
51
246
67
53
68
226
79
156
107
144
163
155
43
59
21
207
172
158
150
238
195
137
100
24
179
125
176
147
85
10
6
36
105
159
42
25
169
90
55
89
98
68
4
253
54
210
38
86
119
68
34
64
164
227
110
207
77
82
52
208
179
28
186
128
48
9
180
67
249
69
198
203
214
55
210
120
186
1
109
221
115
220
152
176
5
95
126
221
234
158
240
121
34
212
79
243
76
85
199
44
208
181
117
62
235
243
108
102
98
1
93
234
81
15
109
1
95
153
254
178
184
77
141
107
236
106
211
185
32
44
73
26
65
135
193
26
44
232
19
177
90
241
46
137
93
129
117
163
13
81
35
59
71
186
254
85
231
70
98
147
63
220
212
184
254
67
52
164
7
184
207
251
152
157
89
88
164
182
160
90
225
140
73
35
162
22
180
212
115
55
237
170
26
114
178
162
33
155
161
252
17
39
104
237
6
142
89
141
151
247
64
50
39
112
102
212
138
249
221
32
82
169
190
160
158
10
115
132
1
48
221
27
28
2
171
123
24
5
169
74
49
179
60
132
143
164
3
69
110
37
52
63
237
172
178
201
183
189
249
248
200
16
52
178
115
174
18
176
161
49
4
191
177
127
6
135
234
159
180
239
18
253
254
19
222
225
68
177
93
53
207
236
109
100
175
131
218
147
75
52
31
131
50
236
69
77
124
246
229
112
32
169
191
123
7
222
128
157
62
84
43
171
176
114
219
70
12
190
81
164
63
43
180
194
110
72
244
102
190
207
106
13
30
247
233
202
143
111
184
1
93
25
20
198
95
77
206
210
224
83
213
36
252
111
155
100
23
241
95
248
34
140
45
27
66
3
33
171
41
143
195
137
76
113
211
244
176
71
177
192
105
196
154
74
144
78
126
118
234
176
135
35
110
62
39
69
77
153
131
15
164
253
13
75
227
137
145
22
89
238
77
253
38
23
192
186
111
23
140
128
123
240
221
127
187
134
255
165
84
65
228
189
62
210
76
107
131
198
163
226
165
104
209
52
173
232
79
181
180
91
60
222
6
173
228
43
136
65
5
130
137
25
19
146
203
111
175
186
197
191
167
102
132
94
67
69
146
49
35
44
61
188
63
151
169
123
167
24
236
13
206
246
147
117
116
23
250
14
238
198
109
131
216
80
215
209
41
171
53
87
68
27
48
91
158
124
202
192
171
236
148
195
127
241
121
76
209
111
146
179
165
246
152
45
61
57
217
78
141
197
239
232
94
72
10
149
191
219
143
38
147
18
191
202
97
148
184
67
242
226
157
22
116
127
20
156
69
237
36
43
59
33
16
113
64
44
208
31
40
114
100
133
70
63
103
32
178
111
19
166
152
68
115
206
117
13
89
72
193
0
214
60
176
195
105
