P3
# Created by GIMP version 2.10.22 PNM plug-in
5 9
255
254
194
97
147
205
58
213
118
88
96
183
70
189
18
180
113
187
233
107
217
146
190
122
7
240
30
209
204
17
130
49
51
36
186
218
246
25
147
97
243
113
7
245
13
205
47
248
165
210
75
153
199
123
185
240
146
89
65
208
205
167
77
0
108
187
237
44
163
227
208
6
106
105
204
179
94
1
8
163
204
248
63
14
173
42
125
53
17
72
106
89
224
169
72
202
123
130
200
176
100
208
214
236
139
180
32
247
42
221
50
147
36
97
227
89
131
146
92
29
10
62
96
216
34
131
93
213
214
247
246
217
250
60
237
165
